General
Unique ID                   : 287748077191227083153283002397856268619 (0xD87A438A60FB1C18AC763D78C672814B)
Complete name               : Alien Liberty International - BETTER DAYS (feat. Dos Monos) (Re-edit ver.) [WEB-DL 1080p AAC 2.0 x264-SEKAI].mkv
Format                      : Matroska
Format version              : Version 4
File size                   : 258 MiB
Duration                    : 5 min 16 s
Overall bit rate            : 6 851 kb/s
Frame rate                  : 29.970 FPS
Title                       : Alien Liberty International - BETTER DAYS (feat. Dos Monos) (Re-edit ver.) [WEB-DL 1080p AAC 2.0 x264-SEKAI]
Encoded date                : 2026-04-25 19:07:45 UTC
Writing application         : mkvmerge 98.0 ('Chonks') 64-bit
Writing library             : libebml v1.4.5 + libmatroska v1.7.1
Website                     : https://sekai-archivist.blogspot.com/

Video
ID                          : 1
Format                      : AVC
Format/Info                 : Advanced Video Codec
Format profile              : High@L4
Format settings             : CABAC / 5 Ref Frames
Format settings, CABAC      : Yes
Format settings, Reference  : 5 frames
Format settings, Slice coun : 8 slices per frame
Codec ID                    : V_MPEG4/ISO/AVC
Duration                    : 5 min 15 s
Bit rate                    : 6 597 kb/s
Width                       : 1 920 pixels
Height                      : 820 pixels
Display aspect ratio        : 2.35:1
Frame rate mode             : Constant
Frame rate                  : 29.970 (30000/1001) FPS
Color space                 : YUV
Chroma subsampling          : 4:2:0 (Type 2)
Bit depth                   : 8 bits
Scan type                   : Progressive
Bits/(Pixel*Frame)          : 0.140
Stream size                 : 248 MiB (96%)
Language                    : Japanese
Default                     : Yes
Forced                      : No
Color range                 : Limited
Color primaries             : BT.709
Transfer characteristics    : BT.709
Matrix coefficients         : BT.709

Audio
ID                          : 2
Format                      : AAC LC
Format/Info                 : Advanced Audio Codec Low Complexity
Codec ID                    : A_AAC-2
Duration                    : 5 min 16 s
Bit rate                    : 252 kb/s
Channel(s)                  : 2 channels
Channel layout              : L R
Sampling rate               : 48.0 kHz
Frame rate                  : 46.875 FPS (1024 SPF)
Compression mode            : Lossy
Stream size                 : 9.50 MiB (4%)
Language                    : Japanese
Default                     : Yes
Forced                      : No

